<?xml version="1.0" encoding="iso-8859-1"?>
<!-- Generator: Adobe Illustrator 19.0.0, SVG Export Plug-In . SVG Version: 6.00 Build 0)  -->
<svg version="1.1" id="Layer_1" xmlns="http://www.w3.org/2000/svg" xmlns:xlink="http://www.w3.org/1999/xlink" x="0px" y="0px"
	 viewBox="0 0 511.801 511.801" style="enable-background:new 0 0 511.801 511.801;" xml:space="preserve">
<g transform="translate(1 1)">
	<path style="fill:#FFA800;" d="M382.9,126.801h-256c3.413-36.693,39.253-102.4,128.853-102.4
		C341.087,24.401,379.487,90.107,382.9,126.801"/>
	<path style="fill:#FFE100;" d="M357.3,126.801H126.9c3.413-36.693,50.347-102.4,103.253-102.4
		C315.487,24.401,353.887,90.107,357.3,126.801"/>
	<path style="fill:#FFFFFF;" d="M58.634,348.667L58.634,348.667c-18.773,0-34.133-15.36-34.133-34.133V195.067
		c0-18.773,15.36-34.133,34.133-34.133s34.133,15.36,34.133,34.133v119.467C92.767,333.307,77.407,348.667,58.634,348.667"/>
	<path style="fill:#FFE100;" d="M84.234,348.667L84.234,348.667c-18.773,0-34.133-15.36-34.133-34.133V195.067
		c0-18.773,15.36-34.133,34.133-34.133V348.667z"/>
	<path style="fill:#FFA800;" d="M451.167,348.667L451.167,348.667c-18.773,0-34.133-15.36-34.133-34.133V195.067
		c0-18.773,15.36-34.133,34.133-34.133s34.133,15.36,34.133,34.133v119.467C485.3,333.307,469.94,348.667,451.167,348.667"/>
	<path style="fill:#FFE100;" d="M425.567,160.934L425.567,160.934c18.773,0,34.133,15.36,34.133,34.133v119.467
		c0,18.773-15.36,34.133-34.133,34.133"/>
	<path style="fill:#FFA800;" d="M348.767,391.334v85.333c0,14.507-11.093,25.6-25.6,25.6c-14.507,0-25.6-11.093-25.6-25.6v-85.333
		h-85.333v85.333c0,14.507-11.947,25.6-25.6,25.6c-13.653,0-25.6-11.093-25.6-25.6v-85.333H126.9v-230.4h256v230.4H348.767z"/>
	<path style="fill:#FFE100;" d="M348.767,391.334v85.333c0,14.507-11.093,25.6-25.6,25.6c-14.507,0-25.6-11.093-25.6-25.6v-85.333
		h-85.333v85.333c0,14.507-11.947,25.6-25.6,25.6c-13.653,0-25.6-11.093-25.6-25.6v-85.333H126.9v-230.4h230.4v230.4H348.767z"/>
	<path d="M392.287,135.334H117.514l0.853-9.387c3.413-42.667,44.373-110.08,137.387-110.08c50.347,0,82.773,22.187,100.693,40.107
		c23.04,23.893,33.28,52.053,34.987,69.973L392.287,135.334z M137.14,118.267h236.373c-7.68-32.427-42.667-85.333-116.907-85.333
		C180.66,32.934,144.82,81.574,137.14,118.267z"/>
	<path d="M58.634,357.201c-23.893,0-42.667-18.773-42.667-42.667V195.067c0-23.893,18.773-42.667,42.667-42.667
		s42.667,18.773,42.667,42.667v119.467C101.3,338.427,82.527,357.201,58.634,357.201z M58.634,169.467
		c-14.507,0-25.6,11.093-25.6,25.6v119.467c0,14.507,11.093,25.6,25.6,25.6s25.6-11.093,25.6-25.6V195.067
		C84.234,180.561,73.14,169.467,58.634,169.467z"/>
	<path d="M451.167,357.201c-23.893,0-42.667-18.773-42.667-42.667V195.067c0-23.893,18.773-42.667,42.667-42.667
		s42.667,18.773,42.667,42.667v119.467C493.834,338.427,475.06,357.201,451.167,357.201z M451.167,169.467
		c-14.507,0-25.6,11.093-25.6,25.6v119.467c0,14.507,11.093,25.6,25.6,25.6s25.6-11.093,25.6-25.6V195.067
		C476.767,180.561,465.674,169.467,451.167,169.467z"/>
	<path d="M323.167,510.801c-18.773,0-34.133-15.36-34.133-34.133v-76.8h-68.267v76.8c0,18.773-15.36,34.133-34.133,34.133
		s-34.133-15.36-34.133-34.133v-76.8h-34.133V152.401h273.067v247.467H357.3v76.8C357.3,495.441,341.94,510.801,323.167,510.801z
		 M203.7,382.801h102.4v93.867c0,9.387,7.68,17.067,17.067,17.067s17.067-7.68,17.067-17.067v-93.867h34.133V169.467H135.434
		v213.333h34.133v93.867c0,9.387,7.68,17.067,17.067,17.067c9.387,0,17.067-7.68,17.067-17.067V382.801z"/>
	<path d="M229.3,84.134c0-9.387-7.68-17.067-17.067-17.067s-17.067,7.68-17.067,17.067s7.68,17.067,17.067,17.067
		S229.3,93.521,229.3,84.134"/>
	<path d="M314.634,84.134c0-9.387-7.68-17.067-17.067-17.067S280.5,74.747,280.5,84.134s7.68,17.067,17.067,17.067
		S314.634,93.521,314.634,84.134"/>
	<path d="M185.78,50.001c-3.413,0-5.973-1.707-7.68-5.12l-16.213-34.133c-1.707-4.267,0-9.387,4.267-11.093
		c4.267-1.707,9.387,0,11.093,4.267l16.213,34.133c1.707,4.267,0,9.387-4.267,11.093C188.34,49.147,187.487,50.001,185.78,50.001z"
		/>
	<path d="M323.167,50.001c-0.853,0-2.56,0-3.413-0.853c-4.267-1.707-5.973-6.827-4.267-11.093L331.7,3.921
		c1.707-4.267,6.827-5.973,11.093-4.267s5.973,6.827,4.267,11.093l-16.213,34.133C329.994,48.294,326.58,50.001,323.167,50.001z"/>
</g>
<g>
</g>
<g>
</g>
<g>
</g>
<g>
</g>
<g>
</g>
<g>
</g>
<g>
</g>
<g>
</g>
<g>
</g>
<g>
</g>
<g>
</g>
<g>
</g>
<g>
</g>
<g>
</g>
<g>
</g>
</svg>
